<?xml version="1.0" encoding="UTF-8"?>
<svg version="1.1" xmlns="http://www.w3.org/2000/svg" width="538" height="538">
<path d="M0 0 C177.54 0 355.08 0 538 0 C538 177.54 538 355.08 538 538 C360.46 538 182.92 538 0 538 C0 360.46 0 182.92 0 0 Z " fill="#2471F2" transform="translate(0,0)"/>
<path d="M0 0 C5.26041418 0 8.17803193 0.08978724 12.9375 1.5 C13.89527344 1.7784375 14.85304688 2.056875 15.83984375 2.34375 C16.55269531 2.5603125 17.26554687 2.776875 18 3 C18 3.66 18 4.32 18 5 C18.94875 5.0825 19.8975 5.165 20.875 5.25 C25.90093421 5.95485663 30.36285885 8.02436912 35 10 C38.08157322 11.28675862 41.06332449 12.3540092 44.3125 13.125 C45.529375 13.41375 46.74625 13.7025 48 14 C48 14.66 48 15.32 48 16 C49.1446875 16.0928125 49.1446875 16.0928125 50.3125 16.1875 C54.66468738 17.14645654 58.28231113 18.8914681 62.296875 20.7890625 C65.4987585 22.22343228 68.59854129 23.16853232 72 24 C72 24.66 72 25.32 72 26 C73.2375 26.268125 74.475 26.53625 75.75 26.8125 C79.2013708 27.66930883 81.19265901 28.80676485 84 31 C86.63321253 32.12268751 89.29545193 33.05340818 92 34 C92 34.66 92 35.32 92 36 C92.845625 36.2475 93.69125 36.495 94.5625 36.75 C97.68486173 37.88540427 100.34812708 39.2887179 103.1953125 40.984375 C106.03021251 42.57977327 108.99358788 43.7620656 112 45 C112.66 45.33 113.32 45.66 114 46 C114 46.66 114 47.32 114 48 C114.68835938 48.26167969 115.37671875 48.52335937 116.0859375 48.79296875 C119.35599911 50.14745807 122.47067605 51.70685654 125.625 53.3125 C132.74929467 56.91170905 139.95243222 60.28719945 147.3046875 63.3984375 C151.31890801 65.11377716 155.24856783 66.99475884 159.1875 68.875 C179.16462001 78.30917616 200.31150545 86.50534488 222 91 C224.16832394 91.47161046 226.334889 91.95135239 228.5 92.4375 C229.5209375 92.66308594 230.541875 92.88867188 231.59375 93.12109375 C234.15148997 93.78106106 236.5120168 94.52213786 238.98828125 95.40625 C244.77814478 97.36756779 250.70490749 98.53798306 256.70288086 99.67993164 C258.61461546 100.04845029 260.52133999 100.44267466 262.42773438 100.83789062 C285.66825062 105.43190148 309.88868105 105.35519557 333.48901367 105.31567383 C337.46104639 105.31248107 341.43235338 105.33623704 345.40429688 105.36132812 C360.83654276 105.39964331 375.77834945 104.59038032 391 102 C392.17087158 101.80124268 393.34174316 101.60248535 394.5480957 101.39770508 C397.19467728 100.90394821 399.81385404 100.35272948 402.4375 99.75 C403.82582031 99.4396582 403.82582031 99.4396582 405.2421875 99.12304688 C416.30054311 96.57739857 427.16425474 93.3552104 438 90 C438.75845215 89.76780762 439.5169043 89.53561523 440.29833984 89.29638672 C448.10620534 86.88848992 455.48399511 84.01353074 462.8515625 80.484375 C466.98954976 78.53346289 471.20508332 76.8025441 475.44140625 75.078125 C477.95948842 74.06760795 477.95948842 74.06760795 480.08984375 72.859375 C482 72 482 72 486 72 C486 71.34 486 70.68 486 70 C487.66138941 68.82638506 489.38179483 67.73574737 491.125 66.6875 C496.85677861 63.13820632 501.60943373 59.42150362 506.36767578 54.63671875 C508.44037461 52.55843981 510.52535945 50.49271129 512.609375 48.42578125 C514.32297987 46.72141771 516.03651982 45.0169889 517.75 43.3125 C518.62527344 42.44560547 519.50054688 41.57871094 520.40234375 40.68554688 C521.64951172 39.44321289 521.64951172 39.44321289 522.921875 38.17578125 C524.06027832 37.04523315 524.06027832 37.04523315 525.22167969 35.8918457 C527.06172252 34.11550995 527.06172252 34.11550995 528 32 C528.66 32 529.32 32 530 32 C530.2475 31.4225 530.495 30.845 530.75 30.25 C532.18299988 27.67060021 533.78424676 25.93878408 536 24 C536.66 24 537.32 24 538 24 C538 107.49 538 190.98 538 277 C360.46 277 182.92 277 0 277 C0 185.59 0 94.18 0 0 Z " fill="#E2E7EA" transform="translate(0,261)"/>
<path d="M0 0 C5.26041418 0 8.17803193 0.08978724 12.9375 1.5 C13.89527344 1.7784375 14.85304688 2.056875 15.83984375 2.34375 C16.55269531 2.5603125 17.26554687 2.776875 18 3 C18 3.66 18 4.32 18 5 C18.94875 5.0825 19.8975 5.165 20.875 5.25 C25.90093421 5.95485663 30.36285885 8.02436912 35 10 C38.08157322 11.28675862 41.06332449 12.3540092 44.3125 13.125 C45.529375 13.41375 46.74625 13.7025 48 14 C48 14.66 48 15.32 48 16 C49.1446875 16.0928125 49.1446875 16.0928125 50.3125 16.1875 C54.66468738 17.14645654 58.28231113 18.8914681 62.296875 20.7890625 C65.4987585 22.22343228 68.59854129 23.16853232 72 24 C72 24.66 72 25.32 72 26 C73.2375 26.268125 74.475 26.53625 75.75 26.8125 C79.2013708 27.66930883 81.19265901 28.80676485 84 31 C86.63321253 32.12268751 89.29545193 33.05340818 92 34 C92 34.66 92 35.32 92 36 C92.845625 36.2475 93.69125 36.495 94.5625 36.75 C97.68486173 37.88540427 100.34812708 39.2887179 103.1953125 40.984375 C106.03021251 42.57977327 108.99358788 43.7620656 112 45 C112.66 45.33 113.32 45.66 114 46 C114 46.66 114 47.32 114 48 C114.68835938 48.26167969 115.37671875 48.52335937 116.0859375 48.79296875 C119.35599911 50.14745807 122.47067605 51.70685654 125.625 53.3125 C132.74929467 56.91170905 139.95243222 60.28719945 147.3046875 63.3984375 C151.31890801 65.11377716 155.24856783 66.99475884 159.1875 68.875 C179.16462001 78.30917616 200.31150545 86.50534488 222 91 C224.16832394 91.47161046 226.334889 91.95135239 228.5 92.4375 C229.5209375 92.66308594 230.541875 92.88867188 231.59375 93.12109375 C234.15148997 93.78106106 236.5120168 94.52213786 238.98828125 95.40625 C244.77814478 97.36756779 250.70490749 98.53798306 256.70288086 99.67993164 C258.61461546 100.04845029 260.52133999 100.44267466 262.42773438 100.83789062 C285.66825062 105.43190148 309.88868105 105.35519557 333.48901367 105.31567383 C337.46104639 105.31248107 341.43235338 105.33623704 345.40429688 105.36132812 C360.83654276 105.39964331 375.77834945 104.59038032 391 102 C392.17087158 101.80124268 393.34174316 101.60248535 394.5480957 101.39770508 C397.19467728 100.90394821 399.81385404 100.35272948 402.4375 99.75 C403.82582031 99.4396582 403.82582031 99.4396582 405.2421875 99.12304688 C416.30054311 96.57739857 427.16425474 93.3552104 438 90 C438.75845215 89.76780762 439.5169043 89.53561523 440.29833984 89.29638672 C448.10620534 86.88848992 455.48399511 84.01353074 462.8515625 80.484375 C466.98954976 78.53346289 471.20508332 76.8025441 475.44140625 75.078125 C477.95948842 74.06760795 477.95948842 74.06760795 480.08984375 72.859375 C482 72 482 72 486 72 C486 71.34 486 70.68 486 70 C487.32 69.67 488.64 69.34 490 69 C490 69.66 490 70.32 490 71 C489.01 71 488.02 71 487 71 C487 71.66 487 72.32 487 73 C486.071875 73.433125 485.14375 73.86625 484.1875 74.3125 C481.37871064 75.79950613 480.11220977 76.78619027 478 79 C476.72113562 80.20127637 475.42866617 81.38818592 474.125 82.5625 C473.13886719 83.46162109 473.13886719 83.46162109 472.1328125 84.37890625 C469.82458634 86.13332723 467.68756451 86.9337597 465 88 C462.91148236 89.33514992 460.84974327 90.71284876 458.8125 92.125 C453.22064057 96 453.22064057 96 451 96 C450.67 96.99 450.34 97.98 450 99 C449.195625 99.2475 448.39125 99.495 447.5625 99.75 C444.13597104 100.95229086 442.03674328 102.26634154 439.125 104.375 C428.58689979 112 428.58689979 112 424 112 C424 112.66 424 113.32 424 114 C422.80375 114.515625 421.6075 115.03125 420.375 115.5625 C416.32758387 117.34664138 412.42252067 119.33220921 408.5 121.375 C401.34251946 125.028703 393.95906541 127.65777282 386.35058594 130.20556641 C382.05267253 131.65814329 377.77877554 133.17968787 373.5 134.6875 C370.33606266 135.79967952 367.16926448 136.90310004 364 138 C363.17886719 138.2882666 362.35773438 138.5765332 361.51171875 138.87353516 C360.71378906 139.14858887 359.91585938 139.42364258 359.09375 139.70703125 C358.37896484 139.95557861 357.66417969 140.20412598 356.92773438 140.46020508 C355 141 355 141 352 141 C352 141.66 352 142.32 352 143 C346.17168339 144.86010104 340.39769024 146.40544649 334.3828125 147.52734375 C332.13854125 147.97251887 329.95706062 148.52498162 327.75 149.125 C324.32993426 149.92301534 321.49011626 150.17450581 318 150 C318 150.66 318 151.32 318 152 C310.34172191 154.13330725 302.53767805 155.26704588 294.6875 156.4375 C293.95836395 156.54671783 293.22922791 156.65593567 292.47799683 156.76846313 C258.77746612 161.79397685 225.30440534 164.17852747 191.25 164.1875 C190.2434436 164.18849701 189.23688721 164.18949402 188.1998291 164.19052124 C158.56156103 164.18718701 158.56156103 164.18718701 152 162 C149.6060061 161.84368117 147.2095326 161.72438339 144.8125 161.625 C139.0862493 161.33842694 133.61188808 160.66635968 128 159.5 C121.13158415 158.07531374 114.42989469 157.50658852 107.42578125 157.2109375 C104.50714191 157.03122653 101.84102104 156.66272384 99 156 C99 155.34 99 154.68 99 154 C97.82566406 153.95101562 96.65132813 153.90203125 95.44140625 153.8515625 C93.81508955 153.7763571 92.18878827 153.70081764 90.5625 153.625 C89.4168457 153.57859375 89.4168457 153.57859375 88.24804688 153.53125 C79.7305548 153.12076845 71.54639735 152.00545851 63 151 C42.21 150.67 21.42 150.34 0 150 C0 100.5 0 51 0 0 Z " fill="#B1B9C6" transform="translate(0,261)"/>
<path d="M0 0 C52.0713034 -0.42196701 52.0713034 -0.42196701 72 2 C74.03892389 2.22133274 76.0779931 2.44132986 78.1171875 2.66015625 C88.95870293 3.87198401 99.52697127 5.54069304 110.125 8.1328125 C114.10027173 9.02243984 117.95474557 9.5575503 122 10 C122 10.66 122 11.32 122 12 C123.918125 12.185625 123.918125 12.185625 125.875 12.375 C139.32980495 13.88653663 139.32980495 13.88653663 144 17 C146.16195673 17.54926735 146.16195673 17.54926735 148.55078125 17.91015625 C153.97458456 18.91930462 159.00840115 20.56251494 164.1875 22.4375 C165.03763672 22.73720703 165.88777344 23.03691406 166.76367188 23.34570312 C170.47406401 24.66654542 174.13812499 26.02740701 177.7421875 27.6171875 C180.79185544 28.91165087 183.73490893 29.85719861 186.9375 30.6875 C188.37416016 31.06455078 188.37416016 31.06455078 189.83984375 31.44921875 C190.55269531 31.63097656 191.26554687 31.81273437 192 32 C192 32.66 192 33.32 192 34 C192.59425781 34.15855469 193.18851562 34.31710937 193.80078125 34.48046875 C204.75823785 37.5649161 214.69390597 42.78224172 224.8125 47.89453125 C227.57328018 49.28844195 230.3433727 50.65990606 233.125 52.01171875 C240.53572281 55.62830772 247.57867704 59.49856934 254.55859375 63.91015625 C258.60527835 66.41719723 262.79355707 68.64975169 267 70.875 C267.71857178 71.25648193 268.43714355 71.63796387 269.17749023 72.03100586 C272.72685289 73.89119133 276.2427079 75.59022876 280 77 C283.33333333 78.33333333 286.66666667 79.66666667 290 81 C290 81.66 290 82.32 290 83 C291.98 83.33 293.96 83.66 296 84 C296 84.66 296 85.32 296 86 C303.92 87.98 303.92 87.98 312 90 C312 90.66 312 91.32 312 92 C312.6290625 92.18175781 313.258125 92.36351562 313.90625 92.55078125 C320.30393149 94.42961843 326.48118246 96.63837061 332.6953125 99.04296875 C337.86119044 100.99248944 342.50912322 102.27478986 348 103 C350.07544824 103.69981395 352.09866031 104.48949487 354.1328125 105.30078125 C356.38534213 106.14430176 358.6264036 106.62912556 361 107 C360 109 360 109 356.94921875 110.078125 C355.53180984 110.48007934 354.11084156 110.86958693 352.6875 111.25 C351.90568359 111.46180908 351.12386719 111.67361816 350.31835938 111.8918457 C342.92203286 113.84334018 335.47013238 115.54446593 328 117.1875 C326.33070435 117.56213379 326.33070435 117.56213379 324.62768555 117.94433594 C306.34316254 121.8615984 288.44899249 122.32390709 269.80078125 122.26074219 C265.79939447 122.24726059 261.79826566 122.26063147 257.796875 122.2734375 C234.02639883 122.28869402 210.03806957 121.90332304 186.6875 117.0625 C185.35901793 116.80641298 184.03023776 116.55186775 182.70117188 116.29882812 C176.60384743 115.09779344 170.71747982 113.73921666 164.86303711 111.6496582 C162.26283005 110.74294205 159.62677436 110.14523644 156.9375 109.5625 C155.81859375 109.30984375 154.6996875 109.0571875 153.546875 108.796875 C152.37640625 108.53390625 151.2059375 108.2709375 150 108 C140.35185106 105.8323542 131.00783415 103.12281333 121.625 100 C120.62686279 99.66782471 119.62872559 99.33564941 118.6003418 98.9934082 C109.29459169 95.84506721 100.29130661 92.25411843 91.4375 88 C89.9586887 87.29612791 88.47952551 86.59299459 87 85.890625 C86.30648437 85.56126953 85.61296875 85.23191406 84.8984375 84.89257812 C81.92593119 83.49501086 78.91928031 82.17941065 75.91015625 80.86328125 C73.26849173 79.66940015 70.69114757 78.36008307 68.1171875 77.02734375 C66.37764579 76.18324879 64.60087037 75.41631402 62.81640625 74.671875 C58.42828881 72.80938112 54.25900449 70.56717722 50.0625 68.3125 C49.28326172 67.89677734 48.50402344 67.48105469 47.70117188 67.05273438 C45.79942568 66.03769193 43.89951995 65.01920249 42 64 C42 63.34 42 62.68 42 62 C40.1746875 61.4740625 40.1746875 61.4740625 38.3125 60.9375 C31.84863946 58.79318901 25.78551055 55.57289714 20 52 C19.67 51.34 19.34 50.68 19 50 C17.28431898 49.20147986 17.28431898 49.20147986 15.25 48.5625 C11.8744609 47.37325313 9.06541805 45.85538461 6 44 C4.01548229 43.28856912 2.01797888 42.61008664 0 42 C0 41.34 0 40.68 0 40 C-0.59425781 39.91363281 -1.18851562 39.82726562 -1.80078125 39.73828125 C-7.91813614 38.70128019 -13.07430891 36.8258387 -18.65234375 34.12109375 C-21.06425068 32.90999959 -21.06425068 32.90999959 -24 32 C-24 31.34 -24 30.68 -24 30 C-24.75925781 29.87882812 -25.51851562 29.75765625 -26.30078125 29.6328125 C-27.29464844 29.46523438 -28.28851563 29.29765625 -29.3125 29.125 C-30.29863281 28.96257812 -31.28476562 28.80015625 -32.30078125 28.6328125 C-35 28 -35 28 -38 26 C-39.40077323 25.45706464 -40.81985918 24.9600453 -42.25 24.5 C-43.43142578 24.11908203 -43.43142578 24.11908203 -44.63671875 23.73046875 C-47.74527083 22.76964356 -50.86409586 21.86737774 -54 21 C-54 20.34 -54 19.68 -54 19 C-55.11375 18.87625 -56.2275 18.7525 -57.375 18.625 C-62.30460991 18.01542458 -67.14244255 17.02526315 -72 16 C-72 14.02 -72 12.04 -72 10 C-68.91735408 9.3715793 -65.83375836 8.74793686 -62.75 8.125 C-61.89664063 7.95097656 -61.04328125 7.77695313 -60.1640625 7.59765625 C-48.78581002 5.30502329 -37.58963449 3.6467988 -26 2.875 C-24.81921875 2.78863281 -23.6384375 2.70226562 -22.421875 2.61328125 C-14.93540628 2.09384565 -7.50352927 1.89177602 0 2 C0 1.34 0 0.68 0 0 Z " fill="#1E3664" transform="translate(72,245)"/>
<path d="M0 0 C0 5.94 0 11.88 0 18 C-12.625 24 -12.625 24 -16 24 C-16.33 24.99 -16.66 25.98 -17 27 C-19.46875 28.53515625 -19.46875 28.53515625 -22.5 30.0625 C-26.45978058 31.80258773 -26.45978058 31.80258773 -29 35 C-30.98166034 36.0358679 -32.98473831 37.03112419 -35 38 C-35.9075 38.5775 -36.815 39.155 -37.75 39.75 C-38.4925 40.1625 -39.235 40.575 -40 41 C-40.66 40.67 -41.32 40.34 -42 40 C-41.55269531 39.62488281 -41.10539062 39.24976563 -40.64453125 38.86328125 C-40.03996094 38.35152344 -39.43539063 37.83976562 -38.8125 37.3125 C-38.22082031 36.81363281 -37.62914062 36.31476563 -37.01953125 35.80078125 C-35.14299297 34.12750437 -33.35818963 32.39091976 -31.59057617 30.60375977 C-29.53601424 28.53216846 -27.4625897 26.47996439 -25.390625 24.42578125 C-23.67702013 22.72141771 -21.96348018 21.0169889 -20.25 19.3125 C-19.37472656 18.44560547 -18.49945312 17.57871094 -17.59765625 16.68554688 C-16.76621094 15.85732422 -15.93476562 15.02910156 -15.078125 14.17578125 C-14.31918945 13.42208252 -13.56025391 12.66838379 -12.77832031 11.8918457 C-10.93827748 10.11550995 -10.93827748 10.11550995 -10 8 C-9.34 8 -8.68 8 -8 8 C-7.7525 7.4225 -7.505 6.845 -7.25 6.25 C-5.58207452 3.24773413 -3.67725381 0 0 0 Z " fill="#B3CEF4" transform="translate(538,285)"/>
<path d="M0 0 C52.26545704 -0.42354036 52.26545704 -0.42354036 72 2 C72 2.33 72 2.66 72 3 C70.90389404 2.99000725 70.90389404 2.99000725 69.78564453 2.97981262 C18.80989025 1.64174449 18.80989025 1.64174449 -31.63232422 7.54931641 C-35.5214831 8.28961206 -39.43558597 8.63956287 -43.375 9 C-56.99593462 10.13966598 -56.99593462 10.13966598 -70 14 C-69.67 14.66 -69.34 15.32 -69 16 C-69.99 16 -70.98 16 -72 16 C-72 14.02 -72 12.04 -72 10 C-68.91735408 9.3715793 -65.83375836 8.74793686 -62.75 8.125 C-61.89664063 7.95097656 -61.04328125 7.77695313 -60.1640625 7.59765625 C-48.78581002 5.30502329 -37.58963449 3.6467988 -26 2.875 C-24.81921875 2.78863281 -23.6384375 2.70226562 -22.421875 2.61328125 C-14.93540628 2.09384565 -7.50352927 1.89177602 0 2 C0 1.34 0 0.68 0 0 Z " fill="#173F85" transform="translate(72,245)"/>
<path d="M0 0 C0 0.66 0 1.32 0 2 C-0.99 2 -1.98 2 -3 2 C-3 2.66 -3 3.32 -3 4 C-3.928125 4.433125 -4.85625 4.86625 -5.8125 5.3125 C-8.62128936 6.79950613 -9.88779023 7.78619027 -12 10 C-13.27886438 11.20127637 -14.57133383 12.38818592 -15.875 13.5625 C-16.53242188 14.16191406 -17.18984375 14.76132812 -17.8671875 15.37890625 C-20.17541366 17.13332723 -22.31243549 17.9337597 -25 19 C-27.08851764 20.33514992 -29.15025673 21.71284876 -31.1875 23.125 C-36.77935943 27 -36.77935943 27 -39 27 C-39.33 27.99 -39.66 28.98 -40 30 C-40.66 29.67 -41.32 29.34 -42 29 C-41.67 28.67 -41.34 28.34 -41 28 C-46.02649303 26.42922093 -50.76119922 25.55145271 -56 25 C-56 24.01 -56 23.02 -56 22 C-54.77925781 21.63648438 -53.55851562 21.27296875 -52.30078125 20.8984375 C-43.56511456 18.24881145 -35.22419313 15.45234026 -27.0078125 11.44921875 C-22.92771083 9.48335158 -18.7521152 7.78512152 -14.55859375 6.078125 C-12.04051158 5.06760795 -12.04051158 5.06760795 -9.91015625 3.859375 C-8 3 -8 3 -4 3 C-4 2.34 -4 1.68 -4 1 C-2 0 -2 0 0 0 Z " fill="#B6CEF1" transform="translate(490,330)"/>
<path d="M0 0 C1.6646656 0.02830147 1.6646656 0.02830147 3.36296082 0.05717468 C5.69344565 0.0988262 8.02387762 0.14353764 10.35424805 0.19116211 C13.92421375 0.26184239 17.49418909 0.31594823 21.06445312 0.36914062 C23.33465451 0.41175487 25.60483792 0.45534057 27.875 0.5 C28.94168411 0.51468826 30.00836823 0.52937653 31.1073761 0.54450989 C32.0990831 0.56760727 33.0907901 0.59070465 34.11254883 0.61450195 C35.41752068 0.63901176 35.41752068 0.63901176 36.74885559 0.66401672 C39.10546875 0.94921875 39.10546875 0.94921875 43.10546875 2.94921875 C24.62546875 2.61921875 6.14546875 2.28921875 -12.89453125 1.94921875 C-12.89453125 2.60921875 -12.89453125 3.26921875 -12.89453125 3.94921875 C-14.50001831 4.04626099 -14.50001831 4.04626099 -16.13793945 4.14526367 C-36.88206442 5.42574717 -57.15799265 6.98754744 -77.4831543 11.5378418 C-79.99833876 11.96692814 -82.34799988 12.02110009 -84.89453125 11.94921875 C-84.89453125 11.28921875 -84.89453125 10.62921875 -84.89453125 9.94921875 C-76.6741733 7.48803374 -68.65686576 6.35101233 -60.1315918 5.59619141 C-56.18903161 5.60476351 -56.18903161 5.60476351 -52.89453125 3.94921875 C-50.53790913 3.56099786 -48.20180345 3.23354729 -45.83203125 2.94921875 C-45.11974365 2.86164307 -44.40745605 2.77406738 -43.67358398 2.68383789 C-37.36249081 1.94058216 -31.05586913 1.51950609 -24.7109375 1.1953125 C-22.05814773 1.02425236 -19.52397168 0.77774431 -16.89941406 0.43066406 C-11.25646541 -0.20376982 -5.67020078 -0.11141673 0 0 Z " fill="#2E6DD8" transform="translate(84.89453125,243.05078125)"/>
<path d="M0 0 C52.26545704 -0.42354036 52.26545704 -0.42354036 72 2 C72 2.33 72 2.66 72 3 C47.98986423 3.21594836 24.00088219 2.59507627 0 2 C0 1.34 0 0.68 0 0 Z " fill="#19499B" transform="translate(72,245)"/>
<path d="M0 0 C0.33 0 0.66 0 1 0 C1 5.28 1 10.56 1 16 C-6.44230769 20.09326923 -6.44230769 20.09326923 -9.265625 19.62109375 C-9.83796875 19.41613281 -10.4103125 19.21117187 -11 19 C-11.33 17.35 -11.66 15.7 -12 14 C-11.34 14 -10.68 14 -10 14 C-10 12.68 -10 11.36 -10 10 C-7.0625 7.875 -7.0625 7.875 -4 6 C-3.67 5.34 -3.34 4.68 -3 4 C-2.34 4 -1.68 4 -1 4 C-0.67 2.68 -0.34 1.36 0 0 Z " fill="#B5CDF5" transform="translate(537,287)"/>
<path d="M0 0 C1.72880982 -0.05449838 3.45812712 -0.09301688 5.1875 -0.125 C6.15042969 -0.14820313 7.11335937 -0.17140625 8.10546875 -0.1953125 C11.19311826 0.01303092 13.15275823 0.82760633 16 2 C18.75186093 2.64912777 21.5280663 3.13728865 24.3125 3.625 C25.05306641 3.7590625 25.79363281 3.893125 26.55664062 4.03125 C28.37025044 4.35886984 30.18501524 4.68008494 32 5 C32 5.66 32 6.32 32 7 C33.24716797 7.07347656 33.24716797 7.07347656 34.51953125 7.1484375 C35.60621094 7.22320312 36.69289062 7.29796875 37.8125 7.375 C38.89144531 7.44460938 39.97039062 7.51421875 41.08203125 7.5859375 C44 8 44 8 47 10 C48.093125 10.28875 49.18625 10.5775 50.3125 10.875 C54.2960893 12.09033233 56.67584237 13.56768954 60 16 C58 17 58 17 54.2890625 15.890625 C52.73229572 15.34969738 51.17772263 14.80242911 49.625 14.25 C43.32784101 12.07243089 37.08193397 10.12394985 30.578125 8.640625 C28 8 28 8 25.1328125 7.0234375 C21.66020262 5.88899387 18.20118478 5.11722703 14.625 4.375 C13.37976563 4.11460937 12.13453125 3.85421875 10.8515625 3.5859375 C9.91054687 3.39257812 8.96953125 3.19921875 8 3 C8 2.34 8 1.68 8 1 C5.36 1 2.72 1 0 1 C0 0.67 0 0.34 0 0 Z " fill="#2B67D4" transform="translate(186,254)"/>
<path d="M0 0 C0 0.66 0 1.32 0 2 C-0.99 2 -1.98 2 -3 2 C-3 2.66 -3 3.32 -3 4 C-3.928125 4.433125 -4.85625 4.86625 -5.8125 5.3125 C-8.62128936 6.79950613 -9.88779023 7.78619027 -12 10 C-13.27886438 11.20127637 -14.57133383 12.38818592 -15.875 13.5625 C-16.53242188 14.16191406 -17.18984375 14.76132812 -17.8671875 15.37890625 C-20.16966376 17.12895689 -22.31264115 17.96066707 -25 19 C-26.58761275 20.0029763 -28.1511576 21.04512606 -29.6875 22.125 C-33.77990431 25 -33.77990431 25 -36 25 C-35.83203125 22.19921875 -35.83203125 22.19921875 -35 19 C-32.63671875 17.20703125 -32.63671875 17.20703125 -29.6875 15.8125 C-25.62235435 13.861146 -25.62235435 13.861146 -21.875 11.38671875 C-20 10 -20 10 -16.3125 9 C-15.219375 8.67 -14.12625 8.34 -13 8 C-12.67 7.01 -12.34 6.02 -12 5 C-9.01540871 3.04457812 -7.73585209 3 -4 3 C-4 2.34 -4 1.68 -4 1 C-2 0 -2 0 0 0 Z " fill="#BAD1F1" transform="translate(490,330)"/>
<path d="M0 0 C10.18216017 0.39266309 19.84480315 1.55416824 29.83496094 3.57958984 C33.87576664 4.36423885 37.93835412 5.02085419 42 5.6875 C42.79647949 5.81882324 43.59295898 5.95014648 44.41357422 6.08544922 C46.27548227 6.39172467 48.13770539 6.69608387 50 7 C50 7.66 50 8.32 50 9 C52.97 9.33 55.94 9.66 59 10 C59 10.33 59 10.66 59 11 C57.35369672 10.85957123 55.70795821 10.71250671 54.0625 10.5625 C52.68771484 10.44068359 52.68771484 10.44068359 51.28515625 10.31640625 C49 10 49 10 48 9 C45.96260394 8.78740215 43.91930414 8.63038842 41.875 8.5 C34.52178196 7.99315893 34.52178196 7.99315893 31 7.4375 C28.27881344 7.04066029 25.74390241 6.91685144 23 7 C23 6.34 23 5.68 23 5 C22.40985107 4.94465088 21.81970215 4.88930176 21.21166992 4.83227539 C18.53658792 4.57932313 15.86205397 4.320973 13.1875 4.0625 C12.25873047 3.97548828 11.32996094 3.88847656 10.37304688 3.79882812 C9.48037109 3.71181641 8.58769531 3.62480469 7.66796875 3.53515625 C6.84578857 3.456604 6.0236084 3.37805176 5.17651367 3.29711914 C3 3 3 3 0 2 C0 1.34 0 0.68 0 0 Z " fill="#163E84" transform="translate(144,248)"/>
<path d="M0 0 C3.71599191 -0.20086443 4.77208445 -0.1519437 8 2 C10.16195673 2.54926735 10.16195673 2.54926735 12.55078125 2.91015625 C17.97458456 3.91930462 23.00840115 5.56251494 28.1875 7.4375 C29.03763672 7.73720703 29.88777344 8.03691406 30.76367188 8.34570312 C34.47406401 9.66654542 38.13812499 11.02740701 41.7421875 12.6171875 C44.79185544 13.91165087 47.73490893 14.85719861 50.9375 15.6875 C51.89527344 15.93886719 52.85304688 16.19023437 53.83984375 16.44921875 C54.55269531 16.63097656 55.26554687 16.81273437 56 17 C56 17.66 56 18.32 56 19 C56.66 19.33 57.32 19.66 58 20 C53.05 19.01 53.05 19.01 48 18 C48 17.34 48 16.68 48 16 C45.03 15.67 42.06 15.34 39 15 C39 14.34 39 13.68 39 13 C37.96875 12.87625 36.9375 12.7525 35.875 12.625 C31.61776343 11.93834894 27.81930549 10.96650604 24 8.9375 C21.39155804 7.71479283 18.83998588 7.3872708 16 7 C16 6.34 16 5.68 16 5 C15.09636719 4.86722656 14.19273437 4.73445313 13.26171875 4.59765625 C12.08222656 4.42105469 10.90273437 4.24445313 9.6875 4.0625 C8.51574219 3.88847656 7.34398437 3.71445312 6.13671875 3.53515625 C3 3 3 3 0 2 C0 1.34 0 0.68 0 0 Z " fill="#143E84" transform="translate(208,260)"/>
<path d="M0 0 C9.06814454 0.94459839 16.18436089 4.42278543 24 9 C24 9.66 24 10.32 24 11 C25.32 11 26.64 11 28 11 C28 11.99 28 12.98 28 14 C29.2375 14.2475 30.475 14.495 31.75 14.75 C35.50381866 15.68179896 37.62004836 16.82673114 40 20 C40 20.66 40 21.32 40 22 C35.75282442 20.99408999 32.73244099 19.2141922 29.25 16.6875 C23.31584388 12.3952758 17.05584469 9.25224432 10.3125 6.4375 C6.68185837 4.86193854 3.40343211 3.01427615 0 1 C0 0.67 0 0.34 0 0 Z " fill="#2765CB" transform="translate(292,290)"/>
<path d="M0 0 C4.57074994 0.71417968 8.71010518 2.33775649 13 4 C19.0559264 6.34394849 24.53914495 8.14667952 31 9 C33.07544824 9.69981395 35.09866031 10.48949487 37.1328125 11.30078125 C39.38534213 12.14430176 41.6264036 12.62912556 44 13 C43.67 13.66 43.34 14.32 43 15 C37.3444819 14.39496146 31.99786009 13.37814297 26.5 11.9375 C25.77296875 11.75123047 25.0459375 11.56496094 24.296875 11.37304688 C22.53012276 10.91973545 20.76489225 10.4604998 19 10 C19 9.34 19 8.68 19 8 C16.69 7.67 14.38 7.34 12 7 C12 6.34 12 5.68 12 5 C10.7625 5.061875 9.525 5.12375 8.25 5.1875 C5.30742414 5.19271733 4.14353673 5.0789452 1.5 3.625 C0 2 0 2 0 0 Z " fill="#133A7B" transform="translate(389,339)"/>
<path d="M0 0 C0.99 0.33 1.98 0.66 3 1 C0.21641519 3.84137242 -2.57815727 6.67168155 -5.375 9.5 C-6.1690625 10.31082031 -6.963125 11.12164062 -7.78125 11.95703125 C-8.54179687 12.72402344 -9.30234375 13.49101562 -10.0859375 14.28125 C-10.7876709 14.99345703 -11.4894043 15.70566406 -12.21240234 16.43945312 C-14 18 -14 18 -16 18 C-16.33 18.99 -16.66 19.98 -17 21 C-19.21484375 23.04296875 -19.21484375 23.04296875 -21.9375 25.1875 C-22.83339844 25.90292969 -23.72929687 26.61835938 -24.65234375 27.35546875 C-27 29 -27 29 -29 29 C-29 28.01 -29 27.02 -29 26 C-28.21625 25.938125 -27.4325 25.87625 -26.625 25.8125 C-25.75875 25.544375 -24.8925 25.27625 -24 25 C-22.62533375 22.52363988 -22.62533375 22.52363988 -22 20 C-21.01 20 -20.02 20 -19 20 C-18.690625 19.1646875 -18.690625 19.1646875 -18.375 18.3125 C-17.03153247 16.05303189 -15.94842298 15.0001344 -13.9375 13.375 C-10.99175287 11.32880603 -10.99175287 11.32880603 -10 9 C-9.01 9 -8.02 9 -7 9 C-7 8.01 -7 7.02 -7 6 C-2.65714286 2 -2.65714286 2 0 2 C0 1.34 0 0.68 0 0 Z " fill="#3B77DB" transform="translate(520,299)"/>
<path d="M0 0 C-2.96276696 2.96276696 -6.55930364 3.03743231 -10.55078125 3.7265625 C-11.40173874 3.87910492 -12.25269623 4.03164734 -13.12944031 4.18881226 C-14.93189678 4.51018678 -16.73504905 4.82767926 -18.53881836 5.14160156 C-21.29259574 5.62153108 -24.04381052 6.11441652 -26.79492188 6.609375 C-28.54673796 6.92004456 -30.29868713 7.22996485 -32.05078125 7.5390625 C-32.87177811 7.68590485 -33.69277496 7.83274719 -34.53865051 7.98403931 C-38.40552148 8.65196871 -42.05776193 9.18548208 -46 9 C-46 8.34 -46 7.68 -46 7 C-37.77964205 4.53881499 -29.76233451 3.40179358 -21.23706055 2.64697266 C-17.29450036 2.65554476 -17.29450036 2.65554476 -14 1 C-9.27917277 0.27987381 -4.78426665 -0.11960667 0 0 Z " fill="#2F6EE1" transform="translate(46,246)"/>
<path d="M0 0 C-0.66 1.98 -1.32 3.96 -2 6 C-2.66 6 -3.32 6 -4 6 C-4.33 6.99 -4.66 7.98 -5 9 C-8.44444444 12 -8.44444444 12 -11 12 C-11 13.32 -11 14.64 -11 16 C-11.66 16 -12.32 16 -13 16 C-13 16.66 -13 17.32 -13 18 C-18.2734375 21.22265625 -18.2734375 21.22265625 -20 22 C-20.66 21.67 -21.32 21.34 -22 21 C-21.21753906 20.22914063 -20.43507813 19.45828125 -19.62890625 18.6640625 C-18.60663943 17.65117427 -17.58451119 16.63814616 -16.5625 15.625 C-16.04623047 15.11710937 -15.52996094 14.60921875 -14.99804688 14.0859375 C-12.142867 11.31431064 -12.142867 11.31431064 -10 8 C-9.34 8 -8.68 8 -8 8 C-7.7525 7.4225 -7.505 6.845 -7.25 6.25 C-5.58207452 3.24773413 -3.67725381 0 0 0 Z " fill="#98C4FB" transform="translate(538,285)"/>
<path d="M0 0 C0.58203125 1.859375 0.58203125 1.859375 1 4 C-0.3125 6.25 -0.3125 6.25 -2 8 C-2.66 8 -3.32 8 -4 8 C-4.20625 8.763125 -4.4125 9.52625 -4.625 10.3125 C-6.45047575 13.88047532 -8.37199497 14.43497822 -12 16 C-12.9075 16.5775 -13.815 17.155 -14.75 17.75 C-15.4925 18.1625 -16.235 18.575 -17 19 C-17.66 18.67 -18.32 18.34 -19 18 C-18.55269531 17.62488281 -18.10539062 17.24976563 -17.64453125 16.86328125 C-13.9275104 13.71689047 -10.40373721 10.48883064 -7 7 C-5.73049808 5.72783665 -4.45960735 4.45705804 -3.1875 3.1875 C-2.58292969 2.58292969 -1.97835937 1.97835938 -1.35546875 1.35546875 C-0.68451172 0.68451172 -0.68451172 0.68451172 0 0 Z " fill="#A0C6FB" transform="translate(515,307)"/>
<path d="M0 0 C2.475 0.495 2.475 0.495 5 1 C5 1.66 5 2.32 5 3 C7.97 3.495 7.97 3.495 11 4 C11 4.66 11 5.32 11 6 C16.28 7.32 21.56 8.64 27 10 C27 10.66 27 11.32 27 12 C29.475 12.495 29.475 12.495 32 13 C32 13.33 32 13.66 32 14 C26.98517155 13.36340261 22.14266068 12.40944599 17.25 11.125 C16.59128906 10.96386719 15.93257813 10.80273438 15.25390625 10.63671875 C11.77754392 9.72708236 9.1200626 9.02188027 7 6 C7 5.34 7 4.68 7 4 C6.01 4 5.02 4 4 4 C4 3.34 4 2.68 4 2 C2.68 2 1.36 2 0 2 C0 1.34 0 0.68 0 0 Z " fill="#143C7F" transform="translate(357,325)"/>
<path d="M0 0 C4.70510525 1.39144881 8.78913441 3.40180602 13 5.875 C13.59039062 6.21402344 14.18078125 6.55304688 14.7890625 6.90234375 C18.62942052 9.12704454 22.3299173 11.50479133 26 14 C24.375 14.6875 24.375 14.6875 22 15 C19.96726926 14.06833174 17.96615661 13.0650015 16 12 C15.278125 11.835 14.55625 11.67 13.8125 11.5 C12 11 12 11 10.64453125 9.625 C8.30818246 7.31639882 5.57982762 5.90275864 2.7421875 4.28125 C1 3 1 3 0 0 Z " fill="#163D85" transform="translate(304,297)"/>
<path d="M0 0 C-0.33 0.99 -0.66 1.98 -1 3 C-2.75 3.73828125 -2.75 3.73828125 -5 4.3125 C-8.75057619 5.41630881 -11.37641464 6.84481098 -14.5 9.1875 C-19.16899392 12.52249565 -22.36435536 12.53672806 -28 12 C-25.21940888 9.76041087 -22.62730868 8.28568639 -19.3046875 6.9921875 C-18.42425781 6.64542969 -17.54382813 6.29867188 -16.63671875 5.94140625 C-15.26966797 5.41353516 -15.26966797 5.41353516 -13.875 4.875 C-12.0596652 4.1646516 -10.24455006 3.45374154 -8.4296875 2.7421875 C-7.62772949 2.4313623 -6.82577148 2.12053711 -5.99951172 1.80029297 C-1.50152532 0 -1.50152532 0 0 0 Z " fill="#8BB7F9" transform="translate(478,336)"/>
<path d="M0 0 C2.97 0 5.94 0 9 0 C9.33 0.99 9.66 1.98 10 3 C14.55023068 5.49528779 19.94502649 6.07734464 25 7 C25 7.66 25 8.32 25 9 C25.99 9.33 26.98 9.66 28 10 C28 10.66 28 11.32 28 12 C22.6308002 10.68752894 17.87090366 8.64412331 12.8671875 6.30859375 C8.64073475 4.37962689 4.32981735 2.68120891 0 1 C0 0.67 0 0.34 0 0 Z " fill="#265FC1" transform="translate(264,278)"/>
<path d="M0 0 C2.68756955 -0.02720824 5.37485798 -0.0469388 8.0625 -0.0625 C8.81466797 -0.07087891 9.56683594 -0.07925781 10.34179688 -0.08789062 C15.00633118 -0.10808341 19.39923173 0.22404041 24 1 C24 1.66 24 2.32 24 3 C26.64 3.33 29.28 3.66 32 4 C32 4.66 32 5.32 32 6 C25.93127907 5.29559489 19.99101518 4.2872901 14 3.10546875 C9.34667574 2.20570488 4.70846277 1.546518 0 1 C0 0.67 0 0.34 0 0 Z " fill="#2D68D2" transform="translate(152,248)"/>
<path d="M0 0 C1.65 0 3.3 0 5 0 C5 3 5 3 3.50390625 4.53515625 C2.86324219 5.03917969 2.22257813 5.54320312 1.5625 6.0625 C-1.15875193 8.1671333 -1.15875193 8.1671333 -3 11 C-3.66 11 -4.32 11 -5 11 C-5.268125 11.61875 -5.53625 12.2375 -5.8125 12.875 C-7 15 -7 15 -10 17 C-9.67 15.02 -9.34 13.04 -9 11 C-8.01 11 -7.02 11 -6 11 C-5.67 10.01 -5.34 9.02 -5 8 C-4.484375 7.505 -3.96875 7.01 -3.4375 6.5 C-1.65404732 4.98527194 -1.65404732 4.98527194 -2 2 C-1.34 2 -0.68 2 0 2 C0 1.34 0 0.68 0 0 Z " fill="#3976DD" transform="translate(533,282)"/>
<path d="M0 0 C5.22683403 1.41265785 9.64078436 3.90966489 14.31640625 6.5625 C16.96297925 8.05272433 16.96297925 8.05272433 19.77734375 9.0625 C22 10 22 10 23 12 C19.4114612 11.456282 16.34244837 10.38323811 13.04296875 8.8828125 C11.50566194 8.21850784 9.93972633 7.61987226 8.36328125 7.0546875 C7.45964844 6.72726562 6.55601562 6.39984375 5.625 6.0625 C4.77164062 5.76472656 3.91828125 5.46695312 3.0390625 5.16015625 C1 4 1 4 0.2109375 1.87109375 C0.14132812 1.25363281 0.07171875 0.63617188 0 0 Z " fill="#153C84" transform="translate(330,312)"/>
<path d="M0 0 C4.12750657 1.33881753 8.16812407 2.80224059 12.1875 4.4375 C13.21230469 4.84871094 14.23710937 5.25992187 15.29296875 5.68359375 C17.77939181 6.89272011 19.23149412 7.91547245 21 10 C13.72291889 9.22584244 5.89853132 7.56660489 0 3 C0 2.01 0 1.02 0 0 Z " fill="#183777" transform="translate(272,282)"/>
<path d="M0 0 C9.14280961 0.43591815 18.02854522 1.0422461 27 3 C27 3.33 27 3.66 27 4 C7.07794677 4.35931559 7.07794677 4.35931559 0 2 C0 1.34 0 0.68 0 0 Z " fill="#184590" transform="translate(144,248)"/>
<path d="M0 0 C0 0.66 0 1.32 0 2 C-0.99 2 -1.98 2 -3 2 C-3 2.66 -3 3.32 -3 4 C-3.928125 4.433125 -4.85625 4.86625 -5.8125 5.3125 C-8.55642572 6.76516656 -9.9685947 7.78392149 -12 10 C-15.67456691 13.53847184 -19.08634027 13.59052836 -24 14 C-20.736119 10.0833428 -17.8075724 9.3606337 -13 8 C-12.67 7.01 -12.34 6.02 -12 5 C-9.01540871 3.04457812 -7.73585209 3 -4 3 C-4 2.34 -4 1.68 -4 1 C-2 0 -2 0 0 0 Z " fill="#ABCAF6" transform="translate(490,330)"/>
<path d="M0 0 C7.75373065 1.39310527 15.37153842 3.23425887 21 9 C22.97620986 10.04622875 24.9737129 11.05439935 27 12 C25 13 25 13 23.0546875 12.44140625 C22.33539063 12.15136719 21.61609375 11.86132812 20.875 11.5625 C20.15054687 11.27503906 19.42609375 10.98757813 18.6796875 10.69140625 C17.84824219 10.34916016 17.84824219 10.34916016 17 10 C17 9.34 17 8.68 17 8 C14.03 7.505 14.03 7.505 11 7 C11 6.34 11 5.68 11 5 C10.37351562 4.89042969 9.74703125 4.78085937 9.1015625 4.66796875 C7.87566406 4.43013672 7.87566406 4.43013672 6.625 4.1875 C5.81289063 4.03667969 5.00078125 3.88585937 4.1640625 3.73046875 C2 3 2 3 0 0 Z " fill="#2863C7" transform="translate(351,321)"/>
<path d="M0 0 C1.18142578 0.10828125 1.18142578 0.10828125 2.38671875 0.21875 C10.27957154 0.8912771 18.08058786 1.11665255 26 1 C26 1.33 26 1.66 26 2 C22.16714075 2.33893581 18.33364909 2.67012787 14.5 3 C13.42234375 3.09539062 12.3446875 3.19078125 11.234375 3.2890625 C5.46437756 3.78162326 -0.20923553 4.11244203 -6 4 C-2.25 2 -2.25 2 0 2 C0 1.34 0 0.68 0 0 Z " fill="#245FC2" transform="translate(46,245)"/>
<path d="M0 0 C-1 3 -1 3 -3.125 4.1875 C-6.57341145 5.16205106 -9.43112119 5.26436139 -13 5 C-13.99 4.34 -14.98 3.68 -16 3 C-13.71068726 2.30364247 -11.4191243 1.61765623 -9.125 0.9375 C-8.47402344 0.73833984 -7.82304687 0.53917969 -7.15234375 0.33398438 C-2.2265625 -1.11328125 -2.2265625 -1.11328125 0 0 Z " fill="#A9CBFB" transform="translate(450,349)"/>
<path d="M0 0 C2.85708567 0.2297762 5.70883869 0.48309481 8.5625 0.75 C9.76229492 0.8428125 9.76229492 0.8428125 10.98632812 0.9375 C16.61998626 1.48936855 20.27105031 2.87698893 25 6 C21.11955353 7.2735386 19.03805699 6.37394003 15.29296875 4.828125 C11.99831444 3.63823281 8.64781503 3.09579369 5.19921875 2.52734375 C3 2 3 2 0 0 Z " fill="#2963C9" transform="translate(407,345)"/>
<path d="M0 0 C6.625 -0.25 6.625 -0.25 10 2 C10.928125 2.309375 11.85625 2.61875 12.8125 2.9375 C16.06188338 4.02062779 18.96989234 5.41280075 22 7 C17.41205726 8.48552331 14.26097582 6.79105424 10 5 C8.16738065 4.26904072 6.33404209 3.53988213 4.5 2.8125 C2.99965222 2.2091975 1.49952625 1.60534154 0 1 C0 0.67 0 0.34 0 0 Z " fill="#2861C6" transform="translate(384,336)"/>
<path d="M0 0 C0.66 0.33 1.32 0.66 2 1 C0.71034824 2.37562854 -0.62689293 3.70766393 -2 5 C-2.66 5 -3.32 5 -4 5 C-4 5.66 -4 6.32 -4 7 C-8.22949995 9.41685712 -11.12335991 10.34833144 -16 10 C-13.0124801 6.39008012 -10.20261388 5.18540248 -5.90625 3.7265625 C-3.60112713 2.84797059 -1.85105709 1.61967495 0 0 Z " fill="#CDE4FC" transform="translate(506,320)"/>
<path d="M0 0 C5.61 0 11.22 0 17 0 C17 0.33 17 0.66 17 1 C14.56735382 1.75103837 12.13170592 2.47600939 9.6875 3.1875 C8.99720703 3.40341797 8.30691406 3.61933594 7.59570312 3.84179688 C5.57421875 4.41796875 5.57421875 4.41796875 2 5 C0.01953125 3.61328125 0.01953125 3.61328125 -1 2 C-0.67 1.34 -0.34 0.68 0 0 Z " fill="#3773E2" transform="translate(431,348)"/>
<path d="M0 0 C6.48292295 -0.3669579 6.48292295 -0.3669579 8.9375 1.375 C10 3 10 3 10 5 C11.11375 5.103125 12.2275 5.20625 13.375 5.3125 C15.169375 5.6528125 15.169375 5.6528125 17 6 C17.99 7.485 17.99 7.485 19 9 C14.44684052 8.38188466 10.71540233 6.53234107 6.6875 4.4375 C6.04232422 4.10814453 5.39714844 3.77878906 4.73242188 3.43945312 C3.15214772 2.63175745 1.57567895 1.81662387 0 1 C0 0.67 0 0.34 0 0 Z " fill="#2B66CD" transform="translate(332,312)"/>
<path d="M0 0 C1.32 0 2.64 0 4 0 C4 0.99 4 1.98 4 3 C5.32 3 6.64 3 8 3 C8 3.66 8 4.32 8 5 C6.68872739 5.6690776 5.3759455 6.33519806 4.0625 7 C2.96615234 7.556875 2.96615234 7.556875 1.84765625 8.125 C0 9 0 9 -1 9 C-1 7.35 -1 5.7 -1 4 C-0.01 4 0.98 4 2 4 C1.34 2.68 0.68 1.36 0 0 Z " fill="#193671" transform="translate(353,324)"/>
<path d="M0 0 C2.31 0.33 4.62 0.66 7 1 C7 1.66 7 2.32 7 3 C8.27875 3.0825 9.5575 3.165 10.875 3.25 C13.0859375 3.51171875 13.0859375 3.51171875 15 4 C16.5 6.0625 16.5 6.0625 17 8 C10.56917213 6.71383443 5.59579736 4.39374748 0 1 C0 0.67 0 0.34 0 0 Z " fill="#2D6FDC" transform="translate(369,328)"/>
<path d="M0 0 C-3.16063087 2.60332156 -6.3431652 4.14038576 -10.125 5.6875 C-11.70667969 6.34298828 -11.70667969 6.34298828 -13.3203125 7.01171875 C-16 8 -16 8 -18 8 C-18 7.34 -18 6.68 -18 6 C-16.865625 5.71125 -15.73125 5.4225 -14.5625 5.125 C-13.386875 4.75375 -12.21125 4.3825 -11 4 C-10.67 3.34 -10.34 2.68 -10 2 C-6.68902394 -0.20731737 -3.90590763 -0.17754126 0 0 Z " fill="#3A76E0" transform="translate(482,333)"/>
<path d="M0 0 C4.24223102 -0.3636198 6.58168085 0.4606772 10 3 C10 3.66 10 4.32 10 5 C11.32 5.33 12.64 5.66 14 6 C11.26980214 7.06528748 10.20701188 7.07998186 7.421875 6.00390625 C6.54015625 5.52824219 5.6584375 5.05257813 4.75 4.5625 C3.85796875 4.08941406 2.9659375 3.61632812 2.046875 3.12890625 C1.37140625 2.75636719 0.6959375 2.38382812 0 2 C0 1.34 0 0.68 0 0 Z " fill="#2C6DD7" transform="translate(306,296)"/>
<path d="M0 0 C0 0.33 0 0.66 0 1 C-0.63808594 1.12117187 -1.27617187 1.24234375 -1.93359375 1.3671875 C-3.17302734 1.61855469 -3.17302734 1.61855469 -4.4375 1.875 C-5.26121094 2.03742188 -6.08492187 2.19984375 -6.93359375 2.3671875 C-7.61550781 2.57601562 -8.29742188 2.78484375 -9 3 C-9.33 3.66 -9.66 4.32 -10 5 C-12.0625 5.625 -12.0625 5.625 -14 6 C-13.67 6.66 -13.34 7.32 -13 8 C-13.99 8 -14.98 8 -16 8 C-16 6.02 -16 4.04 -16 2 C-10.61972975 0.80911014 -5.54708616 -0.2919519 0 0 Z " fill="#244E92" transform="translate(16,253)"/>
<path d="M0 0 C0.66 0.33 1.32 0.66 2 1 C0.37680325 2.31472947 -1.248615 3.62671662 -2.875 4.9375 C-3.77992188 5.66839844 -4.68484375 6.39929688 -5.6171875 7.15234375 C-8 9 -8 9 -10 10 C-8.68 10.66 -7.36 11.32 -6 12 C-8.31 12 -10.62 12 -13 12 C-12.84375 10.23046875 -12.84375 10.23046875 -12 8 C-9.53125 6.11328125 -9.53125 6.11328125 -6.5 4.3125 C-3.06122722 2.40846673 -3.06122722 2.40846673 0 0 Z " fill="#DAE4FA" transform="translate(466,347)"/>
<path d="M0 0 C0 0.66 0 1.32 0 2 C2.64 2 5.28 2 8 2 C8 2.33 8 2.66 8 3 C-2.89 3.495 -2.89 3.495 -14 4 C-9.59512988 1.79756494 -5.01454984 0 0 0 Z " fill="#94A6C3" transform="translate(434,353)"/>
<path d="M0 0 C-2.28431738 2.35800504 -4.0081024 3.88720897 -7.3359375 4.265625 C-9.56920205 4.251535 -11.77382441 4.17460201 -14 4 C-9.28840397 0.26321694 -5.98096662 -0.11284843 0 0 Z " fill="#9AC1FB" transform="translate(464,344)"/>
<path d="M0 0 C3.80718548 0.72753266 7.55485569 1.61276572 11.3125 2.5625 C12.38113281 2.83191406 13.44976562 3.10132813 14.55078125 3.37890625 C15.76314453 3.68634766 15.76314453 3.68634766 17 4 C16.67 4.66 16.34 5.32 16 6 C9.79011871 5.55643705 5.39459439 4.08467498 0 1 C0 0.67 0 0.34 0 0 Z " fill="#1B4689" transform="translate(416,348)"/>
<path d="M0 0 C3.63 0.33 7.26 0.66 11 1 C11 1.66 11 2.32 11 3 C12.65 3.33 14.3 3.66 16 4 C12.51799235 5.20655614 10.35462394 4.78332187 6.875 3.6875 C6.00617188 3.42324219 5.13734375 3.15898437 4.2421875 2.88671875 C2 2 2 2 0 0 Z " fill="#285EC1" transform="translate(246,271)"/>
<path d="M0 0 C1.91750286 0.08743331 3.83406665 0.1956189 5.75 0.3125 C6.81734375 0.37050781 7.8846875 0.42851562 8.984375 0.48828125 C12.1821068 1.03090154 13.62598691 1.85071145 16 4 C13.66705225 4.04241723 11.33297433 4.04092937 9 4 C8.67 3.67 8.34 3.34 8 3 C6.65252916 2.76924918 5.29622435 2.58846937 3.9375 2.4375 C2.638125 2.293125 1.33875 2.14875 0 2 C0 1.34 0 0.68 0 0 Z " fill="#B2C2E2" transform="translate(434,353)"/>
<path d="M0 0 C1.63118783 0.56579947 3.25484494 1.15334233 4.875 1.75 C5.77992188 2.07484375 6.68484375 2.3996875 7.6171875 2.734375 C10.32047018 4.17021695 10.96706853 5.17427942 12 8 C11.484375 7.71125 10.96875 7.4225 10.4375 7.125 C7.37643275 5.71219973 4.25055082 4.8751483 1 4 C0.67 2.68 0.34 1.36 0 0 Z " fill="#2B70E5" transform="translate(341,313)"/>
<path d="M0 0 C-0.886875 0.433125 -1.77375 0.86625 -2.6875 1.3125 C-5.96134407 2.91395764 -5.96134407 2.91395764 -8.75 4.75 C-9.86375 5.36875 -9.86375 5.36875 -11 6 C-11.66 5.67 -12.32 5.34 -13 5 C-8.69993829 0.34159981 -6.26860113 -2.01490751 0 0 Z " fill="#ADCFFB" transform="translate(509,320)"/>
<path d="M0 0 C2.97 0.33 5.94 0.66 9 1 C5.61885051 2.69057475 3.3700175 3.45815467 -0.25 4.125 C-1.58804687 4.37636719 -1.58804687 4.37636719 -2.953125 4.6328125 C-3.96632813 4.81457031 -3.96632813 4.81457031 -5 5 C-5.33 4.34 -5.66 3.68 -6 3 C-4.02 2.67 -2.04 2.34 0 2 C0 1.34 0 0.68 0 0 Z " fill="#2B3F66" transform="translate(419,353)"/>
<path d="M0 0 C3.72433382 1.2125738 7.37802806 2.50859979 11 4 C10.67 4.66 10.34 5.32 10 6 C6.28111761 5.49287967 3.26545761 4.88391785 0 3 C0 2.01 0 1.02 0 0 Z " fill="#A2B0C7" transform="translate(174,337)"/>
<path d="M0 0 C2.31 0.33 4.62 0.66 7 1 C7 1.66 7 2.32 7 3 C7.99 3.33 8.98 3.66 10 4 C10 4.66 10 5.32 10 6 C6.5625 5.1875 6.5625 5.1875 3 4 C2.67 3.01 2.34 2.02 2 1 C1.34 0.67 0.68 0.34 0 0 Z " fill="#2C69D4" transform="translate(282,284)"/>
<path d="M0 0 C6.26079448 -0.43177893 9.09075703 0.07260562 14 4 C12 5 12 5 9.1796875 4.22265625 C8.08914062 3.83980469 6.99859375 3.45695312 5.875 3.0625 C4.77929688 2.68222656 3.68359375 2.30195313 2.5546875 1.91015625 C1.71164063 1.60980469 0.86859375 1.30945313 0 1 C0 0.67 0 0.34 0 0 Z " fill="#2964C5" transform="translate(232,266)"/>
<path d="M0 0 C4.04256383 1.22217046 7.49288959 2.62754296 11 5 C11 5.33 11 5.66 11 6 C3.25531915 5.25531915 3.25531915 5.25531915 0 2 C0 1.34 0 0.68 0 0 Z " fill="#143E87" transform="translate(282,286)"/>
<path d="M0 0 C1.45880109 0.14107747 2.91703551 0.28802415 4.375 0.4375 C5.59316406 0.55931641 5.59316406 0.55931641 6.8359375 0.68359375 C9 1 9 1 11 2 C11 2.66 11 3.32 11 4 C11.99 4.33 12.98 4.66 14 5 C12.68 5 11.36 5 10 5 C10 4.34 10 3.68 10 3 C7.98177083 3.09765625 5.96354167 3.1953125 3.9453125 3.29296875 C3.30335937 3.19628906 2.66140625 3.09960938 2 3 C1.34 2.01 0.68 1.02 0 0 Z " fill="#9AA7C2" transform="translate(37,273)"/>
<path d="M0 0 C0.99 0.33 1.98 0.66 3 1 C-1.75 5 -1.75 5 -4 5 C-2.25 1.125 -2.25 1.125 0 0 Z M-6 5 C-5.34 5.33 -4.68 5.66 -4 6 C-4.99 6.99 -5.98 7.98 -7 9 C-7.66 8.34 -8.32 7.68 -9 7 C-8.01 6.34 -7.02 5.68 -6 5 Z " fill="#D6E7FC" transform="translate(484,334)"/>
<path d="M0 0 C1.98 0 3.96 0 6 0 C2.80009492 2.74277578 -0.00499382 4.6302836 -4 6 C-4 5.34 -4 4.68 -4 4 C-3.34 4 -2.68 4 -2 4 C-1.34 2.68 -0.68 1.36 0 0 Z " fill="#BCD1EF" transform="translate(515,311)"/>
<path d="M0 0 C5.23175837 -0.38281159 8.37802694 0.78145293 13 3 C13 3.33 13 3.66 13 4 C9.7 3.67 6.4 3.34 3 3 C3 2.34 3 1.68 3 1 C2.01 0.67 1.02 0.34 0 0 Z " fill="#2E6DDD" transform="translate(403,342)"/>
<path d="M0 0 C1.98 0 3.96 0 6 0 C6 0.99 6 1.98 6 3 C4.35 3.33 2.7 3.66 1 4 C0.67 2.68 0.34 1.36 0 0 Z M-3 2 C-2.01 2.33 -1.02 2.66 0 3 C-0.99 3.33 -1.98 3.66 -3 4 C-3 3.34 -3 2.68 -3 2 Z " fill="#E3ECF7" transform="translate(490,330)"/>
<path d="M0 0 C3.3 0 6.6 0 10 0 C10 0.99 10 1.98 10 3 C10.66 3.33 11.32 3.66 12 4 C7.80530429 3.40075776 3.99000166 2.42500059 0 1 C0 0.67 0 0.34 0 0 Z " fill="#2761C6" transform="translate(208,259)"/>
<path d="M0 0 C-3.28804981 2.91227269 -5.59885603 4.49701212 -10 5 C-5.03424658 -1.67808219 -5.03424658 -1.67808219 0 0 Z " fill="#D0DFFA" transform="translate(528,309)"/>
<path d="M0 0 C1.98 0.66 3.96 1.32 6 2 C6 2.99 6 3.98 6 5 C4.35 4.67 2.7 4.34 1 4 C0.67 2.68 0.34 1.36 0 0 Z " fill="#133A76" transform="translate(330,312)"/>
<path d="M0 0 C-1.28965176 1.37562854 -2.62689293 2.70766393 -4 4 C-4.66 4 -5.32 4 -6 4 C-6 3.34 -6 2.68 -6 2 C-6.99 1.67 -7.98 1.34 -9 1 C-5.57367167 -0.61798838 -3.61944899 -1.34053666 0 0 Z " fill="#98A7B9" transform="translate(420,358)"/>
<path d="M0 0 C-2.93828597 2.50298434 -5.17902761 3.46930939 -9 4 C-9 3.01 -9 2.02 -9 1 C-5.8035914 -0.06546953 -3.34252724 -0.07427838 0 0 Z " fill="#3F78E3" transform="translate(457,344)"/>
<path d="M0 0 C2.97 0.495 2.97 0.495 6 1 C6 1.66 6 2.32 6 3 C7.65 3.33 9.3 3.66 11 4 C11 4.33 11 4.66 11 5 C4.6 4.50769231 4.6 4.50769231 1.5625 1.9375 C1.046875 1.298125 0.53125 0.65875 0 0 Z " fill="#184794" transform="translate(378,334)"/>
<path d="M0 0 C-1.65 0.66 -3.3 1.32 -5 2 C-5 2.66 -5 3.32 -5 4 C-5.99 4 -6.98 4 -8 4 C-8 3.01 -8 2.02 -8 1 C-3.375 -1.125 -3.375 -1.125 0 0 Z " fill="#427EDC" transform="translate(491,329)"/>
<path d="M0 0 C1.46109063 0.25554054 2.91888096 0.53000372 4.375 0.8125 C5.59316406 1.03873047 5.59316406 1.03873047 6.8359375 1.26953125 C9 2 9 2 11 5 C6.87248551 4.39301257 3.6678852 2.96189209 0 1 C0 0.67 0 0.34 0 0 Z " fill="#2A61C0" transform="translate(340,316)"/>
<path d="M0 0 C0.66 0.33 1.32 0.66 2 1 C1.01 1.33 0.02 1.66 -1 2 C-1 2.66 -1 3.32 -1 4 C-3.64 4 -6.28 4 -9 4 C-6.06195683 2.47657021 -3.13439441 1.07229283 0 0 Z " fill="#88B5F6" transform="translate(443,349)"/>
<path d="M0 0 C-0.33 0.66 -0.66 1.32 -1 2 C-0.01 2.33 0.98 2.66 2 3 C1.01 3.495 1.01 3.495 0 4 C-2.35981813 3.06421005 -4.69631264 2.06652192 -7 1 C-3.375 -1.125 -3.375 -1.125 0 0 Z " fill="#495A7B" transform="translate(172,333)"/>
<path d="M0 0 C0.66 0.33 1.32 0.66 2 1 C-2.39453125 5.00390625 -2.39453125 5.00390625 -4 6 C-4.99 5.67 -5.98 5.34 -7 5 C-5.47058649 1.94117299 -3.05780454 1.31048766 0 0 Z " fill="#DBE7FA" transform="translate(516,314)"/>
<path d="M0 0 C2.3125 -0.25 2.3125 -0.25 5 0 C6.8125 2 6.8125 2 8 4 C5.64828869 3.40138258 3.3140622 2.73075648 1 2 C0.67 1.34 0.34 0.68 0 0 Z " fill="#2F6DDF" transform="translate(244,268)"/>
</svg>
